<?xml version="1.0"?>
<svg xmlns="http://www.w3.org/2000/svg" id="regular" enable-background="new 0 0 24 24" height="512px" viewBox="0 0 24 24" width="512px"><g><g><path d="m8.875 18.5h-2.125c-.414 0-.75-.336-.75-.75s.336-.75.75-.75h2.125c.345 0 .625-.28.625-.625s-.28-.625-.625-.625h-.75c-1.172 0-2.125-.953-2.125-2.125s.953-2.125 2.125-2.125h2.125c.414 0 .75.336.75.75s-.336.75-.75.75h-2.125c-.345 0-.625.28-.625.625s.28.625.625.625h.75c1.172 0 2.125.953 2.125 2.125s-.953 2.125-2.125 2.125z" data-original="#000000" class="active-path" data-old_color="#000000" fill="#9D0A0E"/></g><g><path d="m8.5 20c-.414 0-.75-.336-.75-.75v-1.5c0-.414.336-.75.75-.75s.75.336.75.75v1.5c0 .414-.336.75-.75.75z" data-original="#000000" class="active-path" data-old_color="#000000" fill="#9D0A0E"/></g><g><path d="m8.5 13c-.414 0-.75-.336-.75-.75v-1.5c0-.414.336-.75.75-.75s.75.336.75.75v1.5c0 .414-.336.75-.75.75z" data-original="#000000" class="active-path" data-old_color="#000000" fill="#9D0A0E"/></g><g><path d="m18.5 8c-1.654 0-3-1.346-3-3s1.346-3 3-3 3 1.346 3 3-1.346 3-3 3zm0-4.5c-.827 0-1.5.673-1.5 1.5s.673 1.5 1.5 1.5 1.5-.673 1.5-1.5-.673-1.5-1.5-1.5z" data-original="#000000" class="active-path" data-old_color="#000000" fill="#9D0A0E"/></g><g><path d="m18.5 10c-.414 0-.75-.336-.75-.75v-2c0-.414.336-.75.75-.75s.75.336.75.75v2c0 .414-.336.75-.75.75z" data-original="#000000" class="active-path" data-old_color="#000000" fill="#9D0A0E"/></g><g><path d="m18.5 3.5c-.414 0-.75-.336-.75-.75v-2c0-.414.336-.75.75-.75s.75.336.75.75v2c0 .414-.336.75-.75.75z" data-original="#000000" class="active-path" data-old_color="#000000" fill="#9D0A0E"/></g><g><path d="m20.451 4.63c-.26 0-.512-.134-.65-.375-.207-.359-.085-.817.274-1.025l1.729-1c.359-.208.818-.083 1.024.274.207.359.085.817-.274 1.025l-1.729 1c-.118.069-.247.101-.374.101z" data-original="#000000" class="active-path" data-old_color="#000000" fill="#9D0A0E"/></g><g><path d="m14.821 7.87c-.26 0-.512-.134-.65-.375-.207-.359-.085-.817.274-1.025l1.729-1c.359-.208.817-.084 1.024.274.207.359.085.817-.274 1.025l-1.729 1c-.118.069-.247.101-.374.101z" data-original="#000000" class="active-path" data-old_color="#000000" fill="#9D0A0E"/></g><g><path d="m16.549 4.63c-.127 0-.256-.032-.374-.101l-1.729-1c-.359-.208-.481-.666-.274-1.025.206-.357.665-.482 1.024-.274l1.729 1c.359.208.481.666.274 1.025-.138.241-.39.375-.65.375z" data-original="#000000" class="active-path" data-old_color="#000000" fill="#9D0A0E"/></g><g><path d="m22.179 7.87c-.127 0-.256-.032-.374-.101l-1.729-1c-.359-.208-.481-.666-.274-1.025.206-.358.665-.482 1.024-.274l1.729 1c.359.208.481.666.274 1.025-.139.241-.391.375-.65.375z" data-original="#000000" class="active-path" data-old_color="#000000" fill="#9D0A0E"/></g><g><path d="m9.535 24h-2.07c-.61 0-1.137-.456-1.223-1.061l-.266-1.867c-.519-.212-1.011-.498-1.473-.852l-1.748.705c-.57.229-1.228.001-1.532-.53l-1.034-1.792c-.307-.529-.174-1.212.309-1.59l1.482-1.164c-.036-.278-.053-.562-.053-.849 0-.29.019-.576.055-.856l-1.482-1.156c-.482-.377-.615-1.062-.31-1.591l1.034-1.793c.305-.53.964-.757 1.529-.53l1.757.706c.451-.348.947-.635 1.466-.85l.266-1.868c.086-.606.612-1.062 1.223-1.062h2.07c.61 0 1.137.456 1.223 1.061l.266 1.866c.519.213 1.012.498 1.473.853l1.748-.705c.57-.229 1.228 0 1.532.53l1.034 1.792c.307.529.174 1.212-.309 1.59l-1.482 1.164c.036.278.054.562.054.849 0 .29-.019.576-.055.856l1.481 1.156c.482.377.615 1.062.31 1.591l-1.034 1.793c-.305.529-.964.757-1.529.53l-1.758-.706c-.45.348-.946.635-1.465.85l-.266 1.868c-.086.606-.612 1.062-1.223 1.062zm-1.841-1.5h1.611l.296-2.083c.04-.284.238-.52.511-.608.63-.205 1.232-.554 1.74-1.009.214-.191.52-.244.78-.138l1.958.786.805-1.396-1.649-1.287c-.183-.142-.289-.36-.289-.591v-.01c0-.051.005-.102.016-.152.066-.324.101-.664.101-1.013s-.034-.689-.101-1.013c-.058-.279.048-.566.271-.742l1.652-1.297-.805-1.396-1.948.785c-.265.104-.563.054-.776-.133-.533-.47-1.122-.811-1.752-1.013-.274-.088-.474-.324-.514-.609l-.295-2.081h-1.612l-.296 2.083c-.04.284-.238.52-.511.608-.631.205-1.232.554-1.74 1.009-.212.192-.517.246-.78.138l-1.958-.786-.805 1.396 1.649 1.287c.183.142.289.36.289.591 0 .051-.005.111-.016.162-.065.323-.099.663-.099 1.012s.034.689.101 1.013c.058.279-.048.566-.271.742l-1.652 1.297.805 1.396 1.948-.785c.263-.104.562-.055.776.133.533.471 1.123.812 1.752 1.013.274.088.474.324.514.609zm7.883-4.306h.01z" data-original="#000000" class="active-path" data-old_color="#000000" fill="#9D0A0E"/></g></g> </svg>
