<svg xmlns="http://www.w3.org/2000/svg" viewBox="0 0 249.48 707.22"><defs><style>.cls-1{fill:none;}</style></defs><title>Asset 1</title><g id="Layer_2" data-name="Layer 2"><g id="Layer_1-2" data-name="Layer 1"><path d="M28.07,530q0-94.74,0-189.48c0-2.94-1-6.29,4-6.64,1.88-.13,1.16-2.71,1.17-4.21q.06-34.94,0-69.85c0-1.11.09-2.24,0-3.34-.29-2.9.59-4.53,3.87-4.09,2.75.37,2.85-1.47,2.84-3.53,0-15.48,0-31-.06-46.44,0-3.42,0-6.19,4.72-5.78,2.38.2,2-2.1,2-3.62,0-10.28.1-20.56,0-30.84,0-3.09.54-5,4.23-4.76,2.58.2,2.47-1.85,2.47-3.62,0-7.8.12-15.6,0-23.4C53,116.2,57.78,103.64,65.34,92A19.69,19.69,0,0,0,69,80.73c0-19.31.31-38.62.51-57.94,0-.74,0-1.48.09-2.22a2,2,0,0,1,1.75-2.09c1.29-.11,1.62,1,1.74,2a38.77,38.77,0,0,1,.28,4.44c.1,18.7.29,37.4.17,56.1a17.41,17.41,0,0,0,3.28,10.27C83,100.53,87.41,110.54,89,121.66a57.59,57.59,0,0,1,.31,7.78c0,7.68.11,15.36,0,23-.06,3.1.14,5.39,4.2,5.06,2.51-.2,2.44,1.9,2.44,3.68,0,10.15.11,20.31-.05,30.46,0,3.33.3,5.46,4.45,5.18,2.9-.2,2.25,2.42,2.26,4.12,0,15,0,30,0,45,0,1,.07,2,0,3-.22,2.56.91,3.77,3.45,3.45,3-.38,3.39,1.07,3.38,3.68-.1,24.52-.06,49-.09,73.57,0,2.5-.11,4.84,3.44,4.75,1.24,0,1.58,1,1.63,2.09,0,1.23.06,2.47.06,3.71V442c0,5.11,0,5.13,5.15,5.13h66.37c5.17,0,5.19,0,5.19-5.08V339.09c0-2.49-.43-5,3.47-5.1,2,0,1.62-2.18,1.63-3.59,0-8.67,0-17.34,0-26,0-16.22,0-32.45-.08-48.67,0-2.23.31-3.68,3-3.34,3.21.42,3.93-1.26,3.91-4.16-.1-15.61,0-31.21-.08-46.82,0-3,.32-5.16,4.13-4.72,2.58.29,2.58-1.63,2.58-3.46,0-10.28.08-20.56,0-30.84,0-3.2.39-5.35,4.31-5,2.36.19,2.34-1.68,2.34-3.35,0-8.17.16-16.35,0-24.52-.32-13.68,4.58-25.7,11.67-36.93A23.41,23.41,0,0,0,232,79.2c-.19-18.33,0-36.66.19-55,0-2-.87-5.53,1.93-5.52,3,0,1.81,3.52,1.84,5.53.29,19.68.53,39.37.6,59.06,0,3.42,1.76,5.79,3.42,8.36,7.64,11.88,12.57,24.6,12.28,39-.15,7.18.06,14.37-.07,21.55,0,3.15,0,5.66,4.32,5.36,2.51-.18,2.37,2,2.37,3.76,0,9.91.07,19.81,0,29.72,0,3.27-.34,6.26,4.57,5.84,2.52-.21,2.09,2.31,2.1,3.94,0,15.36,0,30.71,0,46.07,0,.87.06,1.74,0,2.6-.18,2.06.72,3.13,2.78,2.84,3.62-.52,3.95,1.52,3.94,4.4q-.09,36,0,72.08c0,2.68-.68,5.73,3.68,5.6,1,0,1.34,1,1.4,1.91.07,1.24.1,2.48.1,3.71V720.49c0,5.17,0,5.12-5.31,5.12-24.22,0-48.45,0-72.67,0-9.67,0-8.34,1.23-8.35-8.56q-.06-81.56.08-163.1a26.6,26.6,0,0,0-3.71-14c-11-18.91-21.79-37.9-32.68-56.86-1.75-3-2.38-3.06-4.1-.05q-17.56,30.72-35.15,61.42c-1.21,2.1-1.16,4.24-1.16,6.46q0,83.4,0,166.81a33,33,0,0,0,0,3.72c.39,3.3-1.06,4.24-4.25,4.23q-39.5-.12-79,.05c-2.52,0-3.32-1-3.15-3.3.07-1,0-2,0-3Zm162.24-.34.78-.29q0-27.29,0-54.58c0-2.54-1.54-2.69-3.43-2.68-6.92,0-13.85-.09-20.76.05-2.89.06-7.29-1.41-8.28.74s2.16,5.33,3.69,8c6.1,10.6,12.13,21.25,18.2,31.86C183.76,518.35,187.05,524,190.31,529.61Zm-75.89-.24.78.11a13.36,13.36,0,0,0,.86-1.16c10.16-17.82,20.26-35.65,30.49-53.43,1.45-2.52.63-2.86-1.75-2.85-8.53.06-17.06.19-25.58-.05-3.65-.1-5,.86-4.89,4.74.22,14.36.09,28.72.09,43.09Z" transform="translate(-28 -18.48)"/><path class="cls-1" d="M71.09,18.67,69.4,19.93V81.19L68.14,86l-1.47,4-4.84,7.79L58.25,105l-2.53,7.37-1.47,5.9-.85,6.52v32H51.72L50.25,158h-1.9l-1.26,1.05v35.37l-.84,1.68H42.67l-1.27,1.05-1,1.69v52.21l-1.05,1.26H35.09l-1.47,1.05v79L32.77,334H30l-1.48,1.89V341L28.14,722v2.73h85.48V548.14l1-2.74,1.26-1.68,5.26-9.47,13.27-23.16,17-29.48v-1.05l1.68.63,1.81,1.69,2,4,31.58,55.37,1.48,2.52,1.05,4.21V723.09l1,1.68,1.69.84h81.68l1.68-1.47V334.88l-2.94-.63-1.9-1.69V295.09l-.21-40.21-.84-1.9-1.9-1-1.89.63L266,251.09l-.64-52.63-.63-1.69-1.68-.21-1.26-.42-1.69-.42-1.26-2.95-.21-33.05L258,158l-1.69-.21-1.89-.64-1.9-1.68-.21-31.37-1.26-7L249,110l-6.52-14.53-6.11-9.68-.21-65.48-.84-1.68h-1.9l-1.47,1.47V81l-.42,3.16-1,3.58-2.74,5-5.26,10.11-3.16,7-2.11,8.63-.84,6.31.21,16.85-.21,13.89-.63,1.47h-2.95l-2.1,1.06-1.06,2.52-.21,33.69-.42,1.89-1.68.63-2.74-.21-1.47,1.69-.21,2.31V250l-.84,1.68-1.9.63-2.1-.42-1.9,1.26.42,79.37-.84,1.06-1.68.21-1.27.21-1.47,1-.42,2.74.42,106.94-1.47,2.11-3.37.21H118l-2.74-.84-.84-3.16V335.93L113.4,334l-3.57-.64-.64-78.52-.84-2.53-2.52-.42-3-.42-.42-4.42-.21-48L101,197l-2.54.21-2.32-2.94-.63-34.32-1.26-2.31-3-.64-2.11-1.89L89,122.67l-.84-6.32-2.74-7.58-2.31-6.52L74.46,86.88l-.84-3.79L73.4,38.67,73.19,21Z" transform="translate(-28 -18.48)"/></g></g></svg>