<svg id="Layer_1" data-name="Layer 1" xmlns="http://www.w3.org/2000/svg" viewBox="0 0 1335.43 147.39"><defs><style>.cls-1,.cls-2{fill:#b7b7b7;}.cls-1,.cls-3{stroke:#b7b7b7;}.cls-3{fill:none;stroke-width:80px;}</style></defs><title>wave</title><rect class="cls-1" x="0.5" y="71.34" width="1334.43" height="75.54"/><path class="cls-2" d="M143.15,693.11c111.2,0,111.2,40,222.4,40s111.2-40,222.4-40,111.2,40,222.4,40,111.2-40,222.4-40,111.21,40,222.41,40,111.21-40,222.41-40" transform="translate(-142.65 -653.11)"/><path class="cls-3" d="M143.15,693.11c111.2,0,111.2,40,222.4,40s111.2-40,222.4-40,111.2,40,222.4,40,111.2-40,222.4-40,111.21,40,222.41,40,111.21-40,222.41-40" transform="translate(-142.65 -653.11)"/></svg>
