<?xml version="1.0" encoding="utf-8"?>
<!-- Generator: Adobe Illustrator 23.1.1, SVG Export Plug-In . SVG Version: 6.00 Build 0)  -->
<svg version="1.1" id="Layer_1" xmlns="http://www.w3.org/2000/svg" xmlns:xlink="http://www.w3.org/1999/xlink" x="0px" y="0px"
	 viewBox="0 0 1335.4 147.4" style="enable-background:new 0 0 1335.4 147.4;" xml:space="preserve">
<style type="text/css">
	.st0{fill:#FFFFFF;}
	.st1{fill:#FFFFFF;stroke:#FFFFFF;stroke-miterlimit:10;}
	.st2{fill:none;stroke:#F9F9F9;stroke-width:80;}
</style>
<title>wave</title>
<rect x="0.5" y="71.3" class="st0" width="1334.4" height="75.5"/>
<path class="st1" d="M0.5,40c111.2,0,111.2,40,222.4,40s111.2-40,222.4-40s111.2,40,222.4,40s111.2-40,222.4-40s111.2,40,222.4,40
	s111.2-40,222.4-40"/>
<path class="st2" d="M0.5,40c111.2,0,111.2,40,222.4,40s111.2-40,222.4-40s111.2,40,222.4,40s111.2-40,222.4-40s111.2,40,222.4,40
	s111.2-40,222.4-40"/>
</svg>
